<svg width="1039" height="875" viewBox="0 0 1039 875" fill="none" xmlns="http://www.w3.org/2000/svg">
<path d="M1113.94 926.578C1101.58 955.931 768.402 713.506 534.071 666.175C299.74 618.845 712.081 171.047 770.783 393.869C829.485 616.691 1126.3 897.225 1113.94 926.578Z" fill="#E363EB"/>
<mask id="mask0_59_213" style="mask-type:alpha" maskUnits="userSpaceOnUse" x="274" y="157" width="494" height="494">
<circle cx="246.528" cy="246.528" r="246.528" transform="matrix(-1 0 0 1 767.562 157.025)" fill="#8270FF"/>
</mask>
<g mask="url(#mask0_59_213)">
<path d="M822.244 308.469C822.244 308.469 822.517 307.685 822.586 306.476C822.762 301.761 822.611 298.226 823.013 294.755C828.1 250.845 820.496 210.001 794.435 173.376C791.332 169.015 789.78 163.551 787.51 158.599C787.51 158.599 787.446 158.724 786.899 158.628C783.741 156.312 781.07 154.158 778.526 151.863C764.976 139.639 751.425 127.416 737.943 115.117C732.065 109.754 726.351 104.211 720.562 98.7494C720.562 98.7494 720.5 98.8623 719.885 98.8462C706.146 92.4616 692.994 86.1454 679.951 79.6149C679.012 79.1449 678.856 77.1106 678.337 75.8037C678.337 75.8037 678.297 75.9256 677.975 75.76C677.171 75.2934 676.751 74.9223 676.394 74.4812C676.394 74.4812 675.643 74.2842 674.545 74.2543C671.998 74.0783 670.476 74.1689 669.109 73.7508C645.24 66.4479 621.361 59.1728 597.575 51.6091C594.813 50.7311 592.585 48.178 590.109 46.4015C589.375 46.3135 588.642 46.2255 586.848 46.4814C569.637 44.3193 553.487 41.8132 537.336 39.3072C537.336 39.3072 536.596 39.0742 535.675 39.1096C534.397 39.1728 534.04 39.2007 533.101 39.6367C516.551 39.7711 500.583 39.4974 484.1 39.1885C483.244 39.1169 482.902 39.0805 482.56 39.0441C482.56 39.0441 481.763 39.1266 480.893 39.5754C476.797 40.2164 473.571 40.4086 470.344 40.6007C468.48 40.7003 466.615 40.7998 463.593 41.3719C460.917 42.0521 459.399 42.2597 457.882 42.4673C433.837 43.5765 410.548 48.4478 388.192 57.2878C369.897 64.5225 351.333 71.3584 333.812 80.2009C313.572 90.4153 295.621 104.226 278.166 118.943C258.769 135.296 243.635 154.917 229.755 175.525C211.28 202.954 198.715 233.359 192.499 265.846C188.74 285.487 186.824 305.582 185.544 325.567C184.401 343.421 184.13 361.493 185.547 379.304C187.135 399.26 190.467 419.139 194.111 438.854C198.191 460.926 203.459 482.778 208.267 504.713L377.058 513.71C377.058 513.71 337.655 478.147 318.999 459.663C296.57 437.441 274.761 414.54 253.767 390.967C249.553 386.235 250.205 377.17 248.595 369.441C249.797 360.002 255.524 355.735 263.686 356.118C271.718 356.495 280.071 357.457 287.589 360.121C333.292 376.319 378.797 393.076 424.978 409.399C430.72 405.591 435.852 402.031 442.228 397.608C435.653 396.051 430.932 394.842 426.172 393.82C398.193 387.818 378.409 371.416 366.877 345.57C361.447 333.401 357.877 320.408 361.205 305.932C361.059 302.619 360.954 300.071 360.104 297.541C345.58 298.498 334.499 293.525 324.794 283.615C311.919 270.468 312.929 226.773 334.48 216.048C340.361 213.121 341.867 208.837 342.155 202.709C342.789 189.268 344.678 175.874 345.024 162.435C345.171 156.741 343.109 150.861 341.362 145.281C339.269 138.598 338.769 132.628 345.114 127.959C351.289 123.416 357.002 125.134 361.576 130.153C366.676 135.748 366.111 141.846 361.066 147.465C359.896 148.769 357.674 149.883 357.537 151.245C355.61 170.416 353.961 189.615 352.244 208.808C353.376 209.02 354.508 209.232 355.641 209.444C356.389 207.291 357.094 205.122 357.892 202.988C361.979 192.059 364.559 180.221 370.459 170.374C395.361 128.815 433.157 112.852 480.678 116.859C525.896 120.673 571.131 124.519 616.429 127.119C675.917 130.533 718.552 179.34 719.031 230.343C719.054 232.796 720.016 235.24 720.541 237.688C723.322 235.767 724.269 234.016 724.43 232.196C725.541 219.659 726.662 207.119 727.42 194.559C727.87 187.108 728.83 179.884 723.674 172.763C719.698 167.27 721.94 160.331 728.009 156.776C733.325 153.662 739.522 153.67 744.052 158.871C748.668 164.171 748.044 169.892 744.638 175.855C742.13 180.245 739.149 184.945 738.593 189.762C736.815 205.165 735.837 220.676 735.131 236.172C734.998 239.091 737.148 242.389 738.921 245.064C742.75 250.843 748.78 255.764 750.801 262.037C759.38 288.673 749.185 329.216 707.437 324.336C705.988 324.166 704.508 324.251 702.705 324.839C701.819 329.738 701.27 334.016 700.833 338.997C694.335 373.516 673.687 395.149 640.937 406.681C643.985 410.355 646.173 412.993 649.058 415.647C660.236 421.154 672 425.086 680.954 432.439C704.887 452.095 712.399 479.803 713.233 509.365C714.423 551.587 705.388 591.941 688.094 630.418C686.831 633.228 683.83 637.177 681.658 637.164C679.065 637.148 675.367 633.951 674.112 631.226C669.221 620.617 665.108 609.648 660.154 598.938C657.744 600.826 655.887 602.589 653.984 605.063C646.578 634.143 628.352 653.208 602.218 666.309C599.296 667.751 596.7 668.663 593.608 669.996C586.134 672.443 579.234 675.843 572.165 676.241C550.621 677.454 528.946 678.713 507.456 677.529C496.035 676.9 484.89 671.256 473.027 667.815C469.959 666.563 467.484 665.372 464.39 664.119C430.568 647.041 415.611 618.002 404.796 583.167C396.322 555.873 393.831 538.248 397.353 515.356C385.026 509.193 377.058 513.71 377.058 513.71L208.267 504.713C208.267 504.713 210.519 508.575 241.386 585.146C254.497 606.687 266.395 629.096 281.02 649.555C300.434 676.715 324.501 699.851 352.019 718.933C374.391 734.447 398.939 745.483 424.884 754.151C472.355 770.009 521.256 766.932 569.724 765.651C606.468 764.68 642.383 756.412 677.507 744.044C715.804 730.56 749.872 711.189 777.501 681.621C795.686 662.161 810.538 640.021 817.436 613.78C821.401 598.693 822.793 583.227 819.184 567.631C814.828 548.807 811.216 529.805 806.591 511.05C802.999 496.486 798.184 482.228 794.208 467.753C789.292 449.85 789.62 431.596 792.291 413.48C793.934 402.337 797.187 391.432 799.425 379.259C800.211 373.67 800.986 369.142 802.424 364.835C807.119 350.781 812.026 336.798 816.914 322.809C818.596 317.996 820.462 313.247 822.244 308.469ZM543.284 739.85C528.389 739.262 513.375 739.655 498.63 737.851C477.823 735.306 457.133 731.538 436.59 727.333C432.261 726.446 428.782 721.405 424.911 718.278C428.972 714.909 432.869 711.306 437.174 708.284C438.968 707.025 441.601 706.8 443.905 706.456C463.813 703.484 483.702 698.447 503.658 698.15C538.691 697.63 573.805 699.407 608.805 701.53C621.447 702.297 633.972 706.428 646.305 709.896C649.643 710.834 654.251 714.885 654.338 717.632C654.427 720.452 650.198 724.354 646.953 726.106C642.409 728.559 637.121 730.31 631.987 730.883C603.005 734.115 573.974 736.905 543.284 739.85Z" fill="#8270FF"/>
<path d="M463.921 663.306C430.083 647.056 415.202 617.563 407.98 582.853C406.579 576.123 393.349 527.698 398.409 514.767C400.676 490.692 412.441 471.386 430.06 455.396C452.762 434.792 480.102 427.687 510.082 428.157C527.945 428.437 545.917 427.039 563.654 428.557C579.471 429.911 595.112 433.888 610.674 437.401C618.208 439.101 621.7 444.063 621.633 452.765C621.348 489.531 627.205 525.533 637.734 560.709C642.067 575.188 647.518 589.332 652.957 604.708C646.093 634.159 627.867 653.224 602.06 665.795C602.049 648.217 602.042 630.639 602.025 613.061C601.996 584.546 584.492 564.169 556.249 562.051C538.866 560.747 521.207 560.979 503.822 562.383C484.344 563.956 464.955 587.02 464.653 607.169C464.377 625.622 464.569 644.082 463.921 663.306Z" fill="#F5F5FA"/>
<path d="M360.365 297.539C360.47 300.087 360.575 302.635 361.139 306.439C362.273 309.933 363.032 312.149 363.607 314.411C370.444 341.269 386.481 360.933 412.518 369.888C428.001 375.213 444.935 376.927 461.386 378.673C482.002 380.861 502.795 381.363 523.505 382.69C558.203 384.914 592.87 388.289 627.599 389.109C651.2 389.667 669.95 377.413 684.481 359.035C689.863 352.229 694.992 345.223 700.237 338.309C700.786 334.031 701.335 329.754 702.151 324.051C704.225 295.45 705.721 268.249 707.905 241.103C712.178 188 669.852 140.022 614.347 137.823C592.996 136.977 571.718 134.408 550.391 132.827C522.925 130.792 495.463 128.607 467.965 127.113C409.154 123.917 368.517 172.164 366.87 216.077C365.849 243.274 362.609 270.388 360.365 297.539ZM467.271 355.942C463.17 355.732 459.038 355.77 454.973 355.273C427.293 351.889 408.221 337.161 399.789 310.604C397.049 301.976 397.237 292.056 397.78 282.826C398.845 264.713 398.839 246.086 403.321 228.716C413.255 190.219 446.953 166.917 486.94 169.103C521.191 170.976 555.353 174.518 589.609 176.273C637.742 178.738 672.071 214.957 670.468 263.233C670.021 276.701 668.217 290.117 667.35 303.577C664.828 342.697 635.149 368.742 596.11 365.797C553.707 362.597 511.312 359.292 467.271 355.942Z" fill="#F2F3F9"/>
<path d="M700.347 339.012C694.991 345.223 689.861 352.229 684.48 359.035C669.949 377.413 651.199 389.666 627.598 389.109C592.869 388.289 558.201 384.914 523.503 382.69C502.793 381.363 482 380.861 461.384 378.673C444.934 376.927 428 375.213 412.517 369.888C386.48 360.933 370.442 341.269 363.606 314.411C363.03 312.149 362.272 309.933 361.179 307.204C357.391 320.423 360.961 333.416 366.391 345.585C377.924 371.431 397.707 387.833 425.686 393.836C430.447 394.857 435.167 396.066 441.742 397.623C435.366 402.046 430.234 405.607 424.529 409.966C416.092 423.968 408.337 437.239 400.193 450.267C399.391 451.551 395.842 452.314 394.182 451.689C369.318 442.326 343.768 434.299 319.99 422.666C295.822 410.842 273.812 394.901 255.27 374.824C253.392 372.791 250.532 371.665 248.127 370.117C249.719 377.185 249.067 386.251 253.282 390.983C274.275 414.556 296.084 437.457 318.513 459.679C337.169 478.163 357.082 495.378 376.572 513.726C378.495 514.609 380.284 514.921 383.511 515.116C389.177 514.902 393.405 514.805 397.634 514.708C400.676 490.692 412.44 471.386 430.059 455.396C452.761 434.792 480.101 427.686 510.082 428.157C527.945 428.437 545.916 427.039 563.653 428.557C579.47 429.911 595.111 433.888 610.673 437.4C618.207 439.101 621.699 444.063 621.632 452.765C621.348 489.531 627.205 525.533 637.733 560.709C642.066 575.188 647.517 589.332 653.002 603.998C655.401 602.605 657.258 600.842 659.632 598.286C658.894 593.029 657.333 588.625 656.436 584.09C651.3 558.123 645.412 532.259 641.588 506.095C638.733 486.569 637.742 466.648 637.62 446.892C637.552 435.916 637.593 423.773 647.876 415.647C645.687 413.008 643.499 410.37 640.451 406.696C673.201 395.164 693.849 373.531 700.347 339.012Z" fill="#E1E1E8"/>
<path d="M359.619 297.557C362.609 270.388 365.849 243.275 366.869 216.078C368.517 172.164 409.154 123.918 467.965 127.113C495.463 128.607 522.925 130.792 550.391 132.828C571.717 134.408 592.996 136.977 614.346 137.823C669.852 140.022 712.177 188 707.905 241.103C705.721 268.249 704.225 295.451 702.488 323.43C704.023 324.267 705.503 324.182 706.953 324.352C748.7 329.232 758.896 288.689 750.316 262.053C748.295 255.78 742.266 250.859 738.436 245.08C736.664 242.405 734.513 239.107 734.646 236.188C735.353 220.692 736.331 205.18 738.108 189.777C738.664 184.96 741.645 180.26 744.153 175.871C747.559 169.908 748.183 164.187 743.567 158.887C739.037 153.686 732.84 153.677 727.525 156.791C721.455 160.347 719.213 167.286 723.19 172.778C728.345 179.9 727.385 187.123 726.936 194.574C726.177 207.135 725.056 219.675 723.946 232.211C723.784 234.032 722.837 235.783 720.056 237.704C719.532 235.256 718.569 232.812 718.546 230.359C718.067 179.356 675.432 130.549 615.944 127.135C570.646 124.535 525.412 120.689 480.193 116.875C432.672 112.867 394.876 128.831 369.975 170.39C364.075 180.237 361.495 192.074 357.407 203.004C356.609 205.138 355.904 207.307 355.156 209.459C354.024 209.247 352.892 209.035 351.759 208.823C353.476 189.631 355.125 170.432 357.052 151.261C357.189 149.899 359.411 148.785 360.582 147.481C365.626 141.862 366.191 135.763 361.092 130.169C356.517 125.149 350.804 123.431 344.629 127.975C338.284 132.644 338.784 138.614 340.877 145.297C342.625 150.876 344.686 156.757 344.539 162.45C344.193 175.89 342.304 189.283 341.671 202.725C341.382 208.852 339.876 213.137 333.996 216.063C312.444 226.789 311.435 270.484 324.309 283.63C334.014 293.541 345.095 298.514 359.619 297.557ZM745.084 263.612C745.487 265.015 746.232 266.419 746.228 267.821C746.217 272.015 750.551 277.907 743.474 279.402C741.852 279.744 737.814 273.844 736.68 270.251C734.156 262.258 729.92 257.025 721.366 255.305C719.58 254.945 718.335 251.891 716.841 250.078C718.64 248.975 720.376 247.046 722.249 246.903C733.737 246.024 739.62 253.579 745.084 263.612ZM345.138 220.751C347.745 220.698 350.485 220.142 352.913 220.776C354.443 221.176 356.134 223.198 356.549 224.803C356.804 225.792 354.9 228.406 353.786 228.519C341.747 229.745 337.097 237.417 335.086 248.241C334.718 250.221 331.231 251.623 329.184 253.291C328.062 250.906 325.669 248.304 326.031 246.171C327.907 235.132 332.279 225.502 345.138 220.751Z" fill="#411EFE"/>
<path d="M473.136 667.892C484.405 671.272 495.55 676.916 506.971 677.545C528.461 678.729 550.136 677.47 571.68 676.257C578.749 675.858 585.649 672.459 593.01 669.178C593.34 649.17 593.374 630.414 593.212 611.66C593.027 590.136 578.535 573.151 557.356 570.9C544.02 569.482 530.477 568.917 517.079 569.407C488.699 570.444 471.668 591.608 473.241 616.051C474.348 633.258 473.249 650.606 473.136 667.892Z" fill="#F5F5FA"/>
<path d="M648.573 415.662C637.594 423.774 637.553 435.916 637.621 446.893C637.743 466.648 638.735 486.569 641.589 506.096C645.413 532.259 651.301 558.124 656.437 584.09C657.334 588.626 658.895 593.03 660.186 598.162C664.624 609.664 668.737 620.632 673.627 631.242C674.883 633.966 678.58 637.164 681.173 637.18C683.345 637.193 686.346 633.244 687.609 630.433C704.903 591.957 713.939 551.602 712.748 509.38C711.914 479.819 704.402 452.11 680.469 432.455C671.515 425.102 659.751 421.17 648.573 415.662Z" fill="#F5F5FA"/>
<path d="M248.11 369.457C250.532 371.665 253.393 372.791 255.271 374.825C273.812 394.902 295.822 410.842 319.99 422.666C343.769 434.299 369.318 442.326 394.183 451.689C395.843 452.314 399.391 451.551 400.194 450.267C408.338 437.239 416.093 423.968 423.92 410.213C378.312 393.091 332.807 376.334 287.103 360.137C279.586 357.472 271.233 356.511 263.201 356.134C255.039 355.751 249.311 360.017 248.11 369.457Z" fill="#F5F5FA"/>
<path d="M472.542 667.831C473.25 650.606 474.348 633.258 473.241 616.051C471.668 591.608 488.699 570.444 517.079 569.407C530.477 568.917 544.021 569.482 557.357 570.9C578.535 573.151 593.027 590.136 593.212 611.66C593.374 630.414 593.341 649.169 593.506 668.758C596.215 668.679 598.811 667.767 601.734 666.325C602.049 648.217 602.043 630.639 602.025 613.06C601.997 584.546 584.493 564.169 556.25 562.051C538.866 560.747 521.207 560.979 503.823 562.383C484.344 563.956 464.956 587.02 464.654 607.169C464.377 625.622 464.569 644.082 464.539 663.368C466.999 665.388 469.474 666.579 472.542 667.831Z" fill="#D2D1D6"/>
<path d="M468.093 355.987C511.312 359.292 553.707 362.598 596.11 365.797C635.149 368.743 664.828 342.697 667.35 303.577C668.217 290.117 670.021 276.701 670.468 263.233C672.07 214.957 637.742 178.738 589.608 176.273C555.353 174.518 521.191 170.976 486.94 169.103C446.952 166.917 413.254 190.219 403.321 228.716C398.839 246.086 398.845 264.713 397.78 282.826C397.237 292.056 397.049 301.976 399.789 310.604C408.221 337.162 427.293 351.889 454.973 355.273C459.038 355.77 463.17 355.732 468.093 355.987ZM519.176 322.387C508.564 318.261 501.069 310.617 495.73 300.864C494.309 298.27 492.991 294.188 494.093 292.081C495.043 290.265 499.558 289.447 502.405 289.628C523.151 290.945 543.879 292.559 564.601 294.226C572.751 294.881 574.178 298.147 569.644 305.026C558.878 321.363 540.415 328.095 519.176 322.387ZM577.373 264.543C577.418 261.916 577.112 259.226 577.573 256.673C579.042 248.531 586.064 242.22 593.804 241.738C601.469 241.26 608.501 246.202 611.126 253.91C614.494 263.803 609.647 275.222 600.487 278.973C591.206 282.772 582.677 277.933 577.373 264.543ZM476.381 271.515C467.315 266.102 462.984 258.48 464.835 250.087C466.504 242.515 470.512 236.427 478.643 234.738C485.795 233.254 492.074 235.215 496.218 241.683C500.93 249.037 500.983 256.81 496.422 264.032C492.2 270.716 485.91 274.058 476.381 271.515ZM481.055 180.635C482.168 180.791 483.281 180.948 484.394 181.104C483.186 182.743 482.337 185.065 480.716 185.917C456.106 198.851 436.008 216.79 420.219 239.635C419.215 241.087 417.788 242.248 414.915 245.276C415.548 240.058 415.651 237.178 416.27 234.413C422.709 205.677 446.823 185.427 481.055 180.635Z" fill="#163551"/>
<path d="M744.795 263.006C739.619 253.579 733.737 246.024 722.248 246.903C720.376 247.046 718.64 248.975 716.841 250.078C718.335 251.891 719.579 254.945 721.365 255.304C729.92 257.025 734.155 262.258 736.679 270.251C737.814 273.844 741.851 279.744 743.474 279.402C750.55 277.906 746.216 272.015 746.227 267.821C746.231 266.419 745.486 265.015 744.795 263.006Z" fill="#E363EB"/>
<path d="M344.466 220.948C332.279 225.502 327.907 235.132 326.031 246.171C325.669 248.304 328.062 250.906 329.184 253.291C331.231 251.623 334.718 250.221 335.086 248.241C337.097 237.417 341.747 229.745 353.785 228.519C354.9 228.406 356.804 225.792 356.549 224.803C356.134 223.198 354.443 221.176 352.913 220.776C350.485 220.142 347.745 220.698 344.466 220.948Z" fill="#E363EB"/>
<path d="M344.02 562.947C344.074 562.972 343.967 562.922 344.02 562.947V562.947Z" fill="#819FB2"/>
<path d="M519.837 322.666C540.414 328.095 558.877 321.363 569.643 305.026C574.177 298.147 572.75 294.881 564.6 294.225C543.878 292.559 523.15 290.945 502.404 289.628C499.557 289.447 495.042 290.264 494.092 292.08C492.99 294.188 494.308 298.269 495.728 300.863C501.068 310.617 508.563 318.261 519.837 322.666Z" fill="#6CA8D9"/>
<path d="M577.473 265.258C582.677 277.933 591.206 282.772 600.487 278.973C609.647 275.222 614.495 263.804 611.126 253.91C608.502 246.202 601.469 241.26 593.804 241.738C586.064 242.221 579.042 248.531 577.573 256.673C577.113 259.226 577.418 261.916 577.473 265.258Z" fill="#6CA7D7"/>
<path d="M477.016 271.702C485.91 274.057 492.2 270.716 496.422 264.031C500.983 256.81 500.93 249.037 496.218 241.683C492.074 235.215 485.794 233.254 478.643 234.738C470.512 236.426 466.504 242.515 464.834 250.087C462.984 258.48 467.315 266.102 477.016 271.702Z" fill="#6CA8D8"/>
<path d="M480.418 180.805C446.823 185.427 422.708 205.677 416.27 234.413C415.65 237.178 415.547 240.058 414.914 245.276C417.787 242.248 419.214 241.087 420.218 239.635C436.007 216.79 456.106 198.851 480.715 185.917C482.337 185.065 483.185 182.743 484.393 181.104C483.28 180.948 482.168 180.791 480.418 180.805Z" fill="#2B5985"/>
</g>
<g clip-path="url(#clip0_59_213)">
<g clip-path="url(#clip1_59_213)">
<path d="M861.584 465.959C862.074 465.787 862.129 465.469 861.759 464.6C861.018 464.046 860.703 464.043 860.387 464.04C860.387 464.04 860.31 464.144 860.281 464.203C860.551 464.778 860.85 465.295 861.584 465.959Z" fill="#819FB2"/>
<path d="M464.516 664.187C430.822 647.775 416.003 617.987 408.812 582.932C407.417 576.135 394.243 527.226 399.281 514.166C401.539 489.851 413.253 470.353 430.798 454.203C453.405 433.394 480.629 426.218 510.483 426.693C528.271 426.976 546.166 425.563 563.829 427.097C579.579 428.464 595.154 432.481 610.651 436.029C618.153 437.746 621.63 442.757 621.563 451.546C621.28 488.679 627.112 525.04 637.596 560.567C641.911 575.19 647.339 589.475 652.755 605.005C645.92 634.749 627.771 654.004 602.073 666.701C602.061 648.947 602.055 631.194 602.038 613.44C602.009 584.641 584.579 564.061 556.455 561.922C539.145 560.605 521.561 560.84 504.249 562.258C484.854 563.846 465.546 587.14 465.246 607.49C464.971 626.127 465.161 644.771 464.516 664.187Z" fill="#F5F5FA"/>
<path d="M361.397 294.772C361.501 297.345 361.606 299.919 362.168 303.761C363.297 307.29 364.052 309.528 364.626 311.813C371.433 338.938 387.403 358.799 413.33 367.843C428.747 373.22 445.61 374.952 461.991 376.716C482.52 378.925 503.225 379.432 523.848 380.773C558.4 383.018 592.921 386.428 627.503 387.256C651.005 387.818 669.676 375.443 684.145 356.881C689.504 350.007 694.612 342.932 699.835 335.948C700.381 331.628 700.928 327.308 701.741 321.549C703.806 292.663 705.296 265.19 707.471 237.773C711.725 184.14 669.578 135.684 614.307 133.463C593.046 132.608 571.858 130.014 550.621 128.417C523.271 126.361 495.925 124.155 468.543 122.646C409.98 119.418 369.515 168.147 367.874 212.498C366.858 239.966 363.631 267.35 361.397 294.772ZM467.851 353.757C463.768 353.545 459.654 353.583 455.605 353.081C428.043 349.664 409.051 334.789 400.654 307.967C397.926 299.253 398.114 289.234 398.654 279.912C399.715 261.618 399.709 242.806 404.172 225.262C414.063 186.381 447.619 162.847 487.437 165.055C521.544 166.946 555.562 170.524 589.673 172.296C637.604 174.786 671.787 211.366 670.191 260.124C669.746 273.726 667.95 287.276 667.086 300.87C664.575 340.381 635.021 366.686 596.147 363.711C553.923 360.479 511.707 357.141 467.851 353.757Z" fill="#F2F3F9"/>
<path d="M699.945 336.659C694.611 342.932 689.503 350.007 684.145 356.881C669.675 375.443 651.004 387.818 627.502 387.256C592.92 386.428 558.399 383.018 523.847 380.773C503.224 379.432 482.519 378.925 461.99 376.716C445.609 374.952 428.747 373.22 413.329 367.843C387.402 358.799 371.432 338.938 364.625 311.813C364.051 309.528 363.296 307.29 362.208 304.534C358.436 317.884 361.991 331.007 367.398 343.298C378.882 369.401 398.581 385.967 426.443 392.029C431.183 393.061 435.883 394.282 442.431 395.855C436.082 400.322 430.971 403.917 425.29 408.32C416.889 422.462 409.167 435.865 401.058 449.023C400.258 450.32 396.725 451.091 395.072 450.46C370.312 441.003 344.87 432.896 321.192 421.147C297.126 409.205 275.209 393.106 256.746 372.828C254.876 370.774 252.027 369.637 249.633 368.074C251.218 375.212 250.569 384.368 254.766 389.148C275.67 412.956 297.388 436.085 319.722 458.529C338.299 477.197 358.128 494.584 377.536 513.115C379.451 514.007 381.232 514.322 384.446 514.519C390.088 514.303 394.298 514.205 398.509 514.107C401.538 489.851 413.252 470.353 430.797 454.203C453.404 433.394 480.628 426.217 510.482 426.693C528.27 426.976 546.165 425.563 563.828 427.097C579.578 428.464 595.153 432.481 610.649 436.029C618.152 437.746 621.629 442.757 621.562 451.546C621.279 488.679 627.111 525.04 637.595 560.567C641.91 575.19 647.338 589.475 652.799 604.288C655.188 602.881 657.038 601.1 659.402 598.519C658.667 593.21 657.113 588.762 656.219 584.181C651.104 557.956 645.241 531.833 641.433 505.408C638.591 485.687 637.604 465.568 637.482 445.615C637.415 434.529 637.456 422.265 647.695 414.058C645.516 411.393 643.336 408.729 640.302 405.018C672.914 393.371 693.474 371.522 699.945 336.659Z" fill="#E1E1E8"/>
<path d="M360.655 294.79C363.632 267.35 366.858 239.966 367.874 212.498C369.515 168.147 409.98 119.419 468.543 122.646C495.925 124.155 523.271 126.362 550.622 128.418C571.858 130.014 593.047 132.609 614.307 133.463C669.578 135.684 711.725 184.141 707.471 237.773C705.296 265.19 703.806 292.663 702.076 320.922C703.606 321.767 705.079 321.681 706.523 321.852C748.094 326.781 758.247 285.834 749.703 258.932C747.691 252.596 741.687 247.626 737.873 241.79C736.108 239.088 733.967 235.757 734.1 232.809C734.803 217.158 735.777 201.492 737.547 185.936C738.1 181.07 741.069 176.324 743.566 171.89C746.958 165.868 747.579 160.09 742.983 154.737C738.472 149.484 732.301 149.476 727.008 152.621C720.964 156.212 718.731 163.22 722.691 168.767C727.825 175.959 726.869 183.255 726.421 190.78C725.666 203.466 724.55 216.132 723.444 228.793C723.284 230.631 722.34 232.4 719.571 234.34C719.049 231.867 718.091 229.399 718.068 226.922C717.591 175.41 675.136 126.116 615.898 122.668C570.791 120.043 525.748 116.158 480.72 112.306C433.399 108.258 395.763 124.381 370.967 166.355C365.091 176.3 362.522 188.255 358.452 199.294C357.658 201.449 356.955 203.64 356.21 205.814C355.083 205.6 353.956 205.386 352.828 205.172C354.538 185.788 356.18 166.397 358.099 147.035C358.235 145.659 360.448 144.534 361.613 143.217C366.636 137.542 367.199 131.383 362.121 125.732C357.566 120.663 351.877 118.928 345.728 123.517C339.409 128.232 339.908 134.262 341.992 141.011C343.732 146.647 345.785 152.585 345.639 158.336C345.294 171.91 343.413 185.437 342.782 199.013C342.495 205.201 340.995 209.528 335.139 212.484C313.679 223.316 312.673 267.447 325.493 280.725C335.158 290.734 346.192 295.756 360.655 294.79ZM744.493 260.506C744.894 261.924 745.636 263.342 745.632 264.758C745.621 268.994 749.937 274.944 742.89 276.454C741.275 276.8 737.254 270.841 736.124 267.212C733.611 259.14 729.394 253.854 720.875 252.116C719.096 251.754 717.857 248.668 716.37 246.838C718.161 245.723 719.89 243.776 721.755 243.631C733.195 242.743 739.052 250.374 744.493 260.506ZM346.234 217.218C348.831 217.165 351.559 216.603 353.977 217.244C355.501 217.648 357.184 219.689 357.597 221.311C357.852 222.31 355.956 224.949 354.846 225.064C342.858 226.302 338.228 234.05 336.225 244.982C335.858 246.983 332.386 248.398 330.348 250.083C329.231 247.674 326.847 245.046 327.208 242.891C329.077 231.743 333.429 222.016 346.234 217.218Z" fill="#411EFE"/>
<path d="M648.388 414.073C637.456 422.265 637.415 434.529 637.482 445.615C637.604 465.568 638.591 485.687 641.433 505.409C645.241 531.833 651.104 557.956 656.219 584.181C657.113 588.762 658.667 593.21 659.952 598.393C664.371 610.01 668.467 621.088 673.336 631.803C674.587 634.555 678.268 637.784 680.851 637.8C683.014 637.813 686.002 633.825 687.26 630.986C704.481 592.126 713.478 551.369 712.292 508.726C711.462 478.87 703.982 450.885 680.15 431.034C671.234 423.607 659.519 419.635 648.388 414.073Z" fill="#F5F5FA"/>
<path d="M249.615 367.407C252.027 369.637 254.876 370.775 256.746 372.828C275.209 393.106 297.126 409.205 321.192 421.147C344.87 432.896 370.312 441.003 395.072 450.46C396.725 451.091 400.258 450.32 401.057 449.023C409.167 435.865 416.889 422.462 424.683 408.57C379.268 391.278 333.955 374.353 288.444 357.994C280.958 355.303 272.64 354.332 264.643 353.951C256.514 353.564 250.811 357.873 249.615 367.407Z" fill="#F5F5FA"/>
<path d="M468.67 353.803C511.708 357.141 553.924 360.48 596.147 363.711C635.022 366.686 664.575 340.381 667.087 300.871C667.951 287.276 669.746 273.726 670.192 260.124C671.788 211.366 637.604 174.786 589.674 172.296C555.563 170.524 521.545 166.947 487.438 165.055C447.619 162.847 414.064 186.382 404.172 225.263C399.709 242.806 399.715 261.618 398.655 279.913C398.114 289.234 397.927 299.253 400.655 307.967C409.052 334.79 428.043 349.664 455.606 353.082C459.654 353.584 463.768 353.546 468.67 353.803ZM519.538 319.867C508.971 315.701 501.508 307.98 496.191 298.13C494.777 295.51 493.464 291.388 494.561 289.259C495.507 287.425 500.003 286.6 502.838 286.782C523.496 288.112 544.137 289.743 564.771 291.426C572.887 292.088 574.308 295.386 569.794 302.334C559.073 318.834 540.688 325.633 519.538 319.867ZM577.489 261.447C577.534 258.794 577.23 256.076 577.689 253.499C579.151 245.275 586.144 238.902 593.851 238.414C601.484 237.932 608.487 242.923 611.1 250.707C614.455 260.7 609.628 272.233 600.506 276.02C591.264 279.858 582.771 274.97 577.489 261.447ZM476.924 268.488C467.896 263.021 463.583 255.324 465.426 246.847C467.089 239.199 471.08 233.05 479.176 231.345C486.298 229.846 492.55 231.826 496.677 238.359C501.369 245.787 501.422 253.637 496.88 260.93C492.676 267.682 486.412 271.056 476.924 268.488ZM481.579 176.702C482.687 176.86 483.795 177.018 484.903 177.176C483.7 178.831 482.855 181.176 481.24 182.037C456.735 195.099 436.721 213.217 420.999 236.29C419.999 237.757 418.578 238.929 415.717 241.987C416.347 236.717 416.45 233.809 417.067 231.017C423.478 201.994 447.491 181.542 481.579 176.702Z" fill="#163551"/>
<path d="M744.204 259.895C739.05 250.373 733.192 242.743 721.752 243.631C719.888 243.775 718.159 245.723 716.368 246.837C717.855 248.668 719.094 251.753 720.873 252.116C729.391 253.853 733.609 259.139 736.122 267.211C737.252 270.84 741.273 276.8 742.888 276.453C749.935 274.943 745.619 268.993 745.63 264.757C745.634 263.341 744.892 261.923 744.204 259.895Z" fill="#E363EB"/>
<path d="M345.564 217.417C333.429 222.016 329.076 231.743 327.208 242.891C326.847 245.046 329.23 247.673 330.347 250.083C332.386 248.397 335.858 246.982 336.224 244.982C338.227 234.05 342.857 226.302 354.845 225.064C355.955 224.949 357.851 222.31 357.597 221.311C357.183 219.689 355.5 217.648 353.976 217.244C351.559 216.603 348.83 217.165 345.564 217.417Z" fill="#E363EB"/>
<path d="M520.195 320.149C540.686 325.632 559.071 318.833 569.792 302.334C574.306 295.386 572.885 292.087 564.769 291.425C544.135 289.742 523.494 288.112 502.836 286.782C500.001 286.599 495.505 287.425 494.559 289.259C493.462 291.388 494.775 295.51 496.189 298.129C501.506 307.98 508.969 315.701 520.195 320.149Z" fill="#6CA8D9"/>
<path d="M577.589 262.169C582.771 274.97 591.264 279.858 600.506 276.02C609.628 272.233 614.455 260.7 611.1 250.707C608.487 242.923 601.484 237.932 593.851 238.414C586.144 238.902 579.151 245.275 577.689 253.499C577.23 256.076 577.534 258.794 577.589 262.169Z" fill="#6CA7D7"/>
<path d="M477.554 268.677C486.411 271.056 492.675 267.682 496.878 260.93C501.42 253.637 501.367 245.786 496.675 238.359C492.549 231.826 486.296 229.846 479.175 231.345C471.078 233.05 467.087 239.199 465.425 246.847C463.582 255.324 467.895 263.021 477.554 268.677Z" fill="#6CA8D8"/>
<path d="M480.942 176.874C447.488 181.542 423.476 201.994 417.064 231.017C416.447 233.809 416.345 236.718 415.715 241.987C418.575 238.93 419.996 237.757 420.996 236.29C436.718 213.218 456.732 195.099 481.238 182.037C482.852 181.176 483.697 178.831 484.9 177.176C483.792 177.018 482.684 176.86 480.942 176.874Z" fill="#2B5985"/>
</g>
</g>
<rect x="205.459" y="645.146" width="146.159" height="145.348" rx="72.6739" transform="rotate(-98.4235 205.459 645.146)" fill="#A99AFD"/>
<path d="M259.014 525.958C258.658 523.553 256.411 521.87 254.053 522.465C247.082 524.223 240.623 527.668 235.262 532.526C228.809 538.371 224.234 545.999 222.117 554.444C219.999 562.89 220.433 571.774 223.365 579.972C226.296 588.171 231.593 595.316 238.585 600.505C245.577 605.693 253.951 608.692 262.647 609.121C271.343 609.55 279.972 607.391 287.441 602.917C294.91 598.442 300.885 591.854 304.609 583.984C307.704 577.444 309.13 570.265 308.792 563.083C308.678 560.654 306.416 558.991 304.011 559.348L269.173 564.507C266.767 564.863 264.529 563.202 264.173 560.797L259.014 525.958Z" fill="#E363EB"/>
<path d="M263.583 519.274C263.227 516.869 264.89 514.607 267.318 514.493C271.608 514.291 275.913 514.718 280.094 515.766C285.702 517.172 290.978 519.669 295.62 523.114C300.263 526.559 304.182 530.885 307.153 535.844C309.368 539.542 311.024 543.538 312.074 547.703C312.668 550.06 310.986 552.307 308.58 552.663L273.742 557.822C271.337 558.178 269.099 556.517 268.742 554.112L263.583 519.274Z" fill="#E363EB"/>
<rect x="140.09" y="284.398" width="147.917" height="46.9577" rx="23.4789" fill="#8270FF"/>
<path d="M154.535 312.327V301.889H157.113V312.327H154.535ZM150.71 308.291V305.925H160.938V308.291H150.71ZM163.764 314.377V302.903H166.088V307.763H166.025C166.025 306.115 166.377 304.868 167.081 304.023C167.786 303.178 168.821 302.755 170.188 302.755H170.61V305.312H169.807C168.821 305.312 168.053 305.58 167.504 306.115C166.969 306.636 166.701 307.397 166.701 308.397V314.377H163.764ZM177.628 314.779C176.641 314.779 175.775 314.61 175.028 314.271C174.296 313.933 173.683 313.483 173.19 312.919C172.711 312.341 172.345 311.701 172.091 310.996C171.852 310.292 171.732 309.573 171.732 308.841V308.439C171.732 307.679 171.852 306.946 172.091 306.242C172.345 305.523 172.711 304.889 173.19 304.34C173.683 303.776 174.289 303.333 175.007 303.009C175.726 302.671 176.557 302.501 177.501 302.501C178.74 302.501 179.776 302.776 180.607 303.326C181.452 303.861 182.086 304.572 182.509 305.46C182.931 306.333 183.143 307.277 183.143 308.291V309.348H172.979V307.552H181.304L180.396 308.439C180.396 307.707 180.29 307.08 180.079 306.559C179.867 306.037 179.543 305.636 179.107 305.354C178.684 305.072 178.149 304.932 177.501 304.932C176.853 304.932 176.303 305.079 175.853 305.375C175.402 305.671 175.057 306.101 174.817 306.664C174.592 307.214 174.479 307.876 174.479 308.651C174.479 309.369 174.592 310.01 174.817 310.574C175.043 311.123 175.388 311.56 175.853 311.884C176.317 312.194 176.909 312.349 177.628 312.349C178.346 312.349 178.931 312.208 179.381 311.926C179.832 311.63 180.121 311.271 180.248 310.848H182.953C182.784 311.637 182.46 312.327 181.981 312.919C181.502 313.511 180.889 313.969 180.142 314.293C179.41 314.617 178.571 314.779 177.628 314.779ZM189.759 314.736C188.181 314.736 186.942 314.405 186.04 313.743C185.153 313.067 184.688 312.137 184.646 310.954H187.287C187.329 311.348 187.548 311.708 187.942 312.032C188.336 312.356 188.956 312.518 189.801 312.518C190.506 312.518 191.062 312.391 191.471 312.137C191.893 311.884 192.105 311.539 192.105 311.102C192.105 310.721 191.943 310.419 191.619 310.193C191.309 309.968 190.774 309.82 190.013 309.749L188.999 309.644C187.717 309.503 186.73 309.137 186.04 308.545C185.35 307.953 185.005 307.164 185.005 306.178C185.005 305.389 185.202 304.727 185.596 304.192C185.991 303.657 186.533 303.255 187.224 302.988C187.928 302.706 188.731 302.565 189.632 302.565C191.041 302.565 192.182 302.875 193.056 303.495C193.929 304.114 194.387 305.023 194.429 306.221H191.788C191.76 305.826 191.562 305.488 191.196 305.206C190.83 304.925 190.302 304.784 189.611 304.784C188.991 304.784 188.512 304.903 188.174 305.143C187.836 305.382 187.667 305.692 187.667 306.073C187.667 306.439 187.801 306.721 188.069 306.918C188.35 307.115 188.801 307.249 189.421 307.319L190.435 307.425C191.788 307.566 192.844 307.939 193.605 308.545C194.38 309.151 194.767 309.968 194.767 310.996C194.767 311.757 194.556 312.419 194.133 312.982C193.725 313.532 193.147 313.962 192.401 314.271C191.654 314.581 190.774 314.736 189.759 314.736ZM201.103 314.736C199.779 314.736 198.75 314.3 198.018 313.426C197.299 312.553 196.94 311.257 196.94 309.538V302.882H199.877V309.792C199.877 310.496 200.075 311.06 200.469 311.482C200.863 311.891 201.399 312.095 202.075 312.095C202.751 312.095 203.301 311.877 203.723 311.44C204.16 311.003 204.378 310.412 204.378 309.665V302.882H207.315V314.377H204.991V309.496H205.223C205.223 310.651 205.076 311.616 204.78 312.391C204.484 313.166 204.04 313.75 203.448 314.145C202.857 314.539 202.117 314.736 201.23 314.736H201.103ZM210.837 314.377V298.951H213.775V314.377H210.837ZM209.4 301.149V298.951H213.775V301.149H209.4ZM222.115 314.525C221.058 314.525 220.185 314.391 219.494 314.124C218.818 313.842 218.311 313.377 217.973 312.729C217.635 312.067 217.466 311.179 217.466 310.066L217.487 299.67H220.234L220.213 310.257C220.213 310.82 220.361 311.257 220.657 311.567C220.967 311.863 221.403 312.01 221.967 312.01H223.763V314.525H222.115ZM215.649 305.058V302.903H223.763V305.058H215.649ZM233.139 314.377V310.975H232.653V307.193C232.653 306.53 232.491 306.037 232.167 305.713C231.843 305.389 231.343 305.227 230.667 305.227C230.314 305.227 229.892 305.234 229.399 305.249C228.906 305.263 228.406 305.284 227.898 305.312C227.405 305.326 226.962 305.347 226.567 305.375V302.882C226.891 302.854 227.258 302.826 227.666 302.797C228.075 302.769 228.49 302.755 228.913 302.755C229.349 302.741 229.758 302.734 230.138 302.734C231.322 302.734 232.301 302.889 233.076 303.199C233.864 303.509 234.456 303.995 234.851 304.657C235.259 305.319 235.463 306.185 235.463 307.256V314.377H233.139ZM229.441 314.673C228.61 314.673 227.877 314.525 227.243 314.229C226.624 313.933 226.138 313.511 225.785 312.961C225.447 312.412 225.278 311.75 225.278 310.975C225.278 310.13 225.483 309.44 225.891 308.904C226.314 308.369 226.898 307.967 227.645 307.7C228.406 307.432 229.293 307.298 230.307 307.298H232.97V309.052H230.265C229.589 309.052 229.068 309.221 228.701 309.559C228.349 309.883 228.173 310.306 228.173 310.827C228.173 311.348 228.349 311.771 228.701 312.095C229.068 312.419 229.589 312.581 230.265 312.581C230.674 312.581 231.047 312.511 231.385 312.37C231.737 312.215 232.026 311.961 232.251 311.609C232.491 311.243 232.625 310.75 232.653 310.13L233.371 310.954C233.301 311.757 233.104 312.433 232.78 312.982C232.47 313.532 232.033 313.954 231.47 314.25C230.92 314.532 230.244 314.673 229.441 314.673ZM243.364 314.757C242.561 314.757 241.821 314.61 241.145 314.314C240.469 314.018 239.884 313.602 239.391 313.067C238.898 312.532 238.518 311.912 238.25 311.207C237.983 310.489 237.849 309.714 237.849 308.883V308.439C237.849 307.622 237.976 306.854 238.229 306.136C238.497 305.418 238.863 304.791 239.328 304.255C239.807 303.72 240.378 303.304 241.04 303.009C241.716 302.699 242.462 302.544 243.28 302.544C244.181 302.544 244.97 302.741 245.646 303.135C246.336 303.516 246.886 304.093 247.294 304.868C247.703 305.643 247.928 306.615 247.971 307.784L247.104 306.77V298.951H250.041V314.377H247.717V309.496H248.224C248.182 310.665 247.942 311.644 247.506 312.433C247.069 313.208 246.491 313.792 245.773 314.187C245.069 314.567 244.266 314.757 243.364 314.757ZM244.019 312.285C244.597 312.285 245.125 312.158 245.604 311.905C246.083 311.637 246.463 311.257 246.745 310.764C247.041 310.257 247.189 309.665 247.189 308.989V308.143C247.189 307.467 247.041 306.904 246.745 306.453C246.449 305.988 246.062 305.636 245.583 305.396C245.104 305.143 244.583 305.016 244.019 305.016C243.385 305.016 242.822 305.171 242.329 305.481C241.85 305.777 241.469 306.199 241.188 306.749C240.92 307.298 240.786 307.939 240.786 308.672C240.786 309.404 240.927 310.045 241.209 310.595C241.49 311.13 241.871 311.546 242.35 311.841C242.843 312.137 243.399 312.285 244.019 312.285ZM258.9 314.779C257.886 314.779 256.991 314.617 256.216 314.293C255.442 313.969 254.786 313.532 254.251 312.982C253.716 312.419 253.307 311.785 253.026 311.081C252.758 310.376 252.624 309.644 252.624 308.883V308.439C252.624 307.65 252.765 306.904 253.047 306.199C253.342 305.481 253.758 304.847 254.293 304.298C254.843 303.734 255.505 303.297 256.28 302.988C257.055 302.664 257.928 302.501 258.9 302.501C259.872 302.501 260.745 302.664 261.52 302.988C262.295 303.297 262.95 303.734 263.485 304.298C264.035 304.847 264.45 305.481 264.732 306.199C265.014 306.904 265.155 307.65 265.155 308.439V308.883C265.155 309.644 265.014 310.376 264.732 311.081C264.464 311.785 264.063 312.419 263.528 312.982C262.992 313.532 262.337 313.969 261.562 314.293C260.788 314.617 259.9 314.779 258.9 314.779ZM258.9 312.264C259.618 312.264 260.224 312.109 260.717 311.799C261.21 311.475 261.584 311.045 261.837 310.51C262.091 309.961 262.218 309.341 262.218 308.651C262.218 307.946 262.084 307.326 261.816 306.791C261.562 306.242 261.182 305.812 260.675 305.502C260.182 305.178 259.59 305.016 258.9 305.016C258.21 305.016 257.611 305.178 257.104 305.502C256.611 305.812 256.23 306.242 255.963 306.791C255.695 307.326 255.561 307.946 255.561 308.651C255.561 309.341 255.688 309.961 255.942 310.51C256.209 311.045 256.59 311.475 257.083 311.799C257.576 312.109 258.181 312.264 258.9 312.264ZM271.889 314.736C270.312 314.736 269.072 314.405 268.17 313.743C267.283 313.067 266.818 312.137 266.776 310.954H269.417C269.459 311.348 269.678 311.708 270.072 312.032C270.467 312.356 271.086 312.518 271.932 312.518C272.636 312.518 273.192 312.391 273.601 312.137C274.024 311.884 274.235 311.539 274.235 311.102C274.235 310.721 274.073 310.419 273.749 310.193C273.439 309.968 272.904 309.82 272.143 309.749L271.129 309.644C269.847 309.503 268.861 309.137 268.17 308.545C267.48 307.953 267.135 307.164 267.135 306.178C267.135 305.389 267.332 304.727 267.727 304.192C268.121 303.657 268.663 303.255 269.354 302.988C270.058 302.706 270.861 302.565 271.763 302.565C273.171 302.565 274.312 302.875 275.186 303.495C276.059 304.114 276.517 305.023 276.559 306.221H273.918C273.89 305.826 273.693 305.488 273.326 305.206C272.96 304.925 272.432 304.784 271.741 304.784C271.122 304.784 270.643 304.903 270.305 305.143C269.966 305.382 269.797 305.692 269.797 306.073C269.797 306.439 269.931 306.721 270.199 306.918C270.481 307.115 270.931 307.249 271.551 307.319L272.566 307.425C273.918 307.566 274.974 307.939 275.735 308.545C276.51 309.151 276.897 309.968 276.897 310.996C276.897 311.757 276.686 312.419 276.263 312.982C275.855 313.532 275.277 313.962 274.531 314.271C273.784 314.581 272.904 314.736 271.889 314.736Z" fill="#FEFEFE"/>
<rect x="810" y="56" width="104" height="104" rx="52" fill="#8270FF" fill-opacity="0.4"/>
<path fill-rule="evenodd" clip-rule="evenodd" d="M878 82C878 80.8954 878.896 80 880 80H888C889.105 80 890 80.8954 890 82V90C890 91.1046 889.105 92 888 92C886.896 92 886 91.1046 886 90V86.4537L871.329 99.4948C870.666 100.084 869.693 100.166 868.94 99.696L853.941 90.3211L836.972 99.7483C836.006 100.285 834.788 99.9369 834.252 98.9713C833.716 98.0057 834.064 96.7881 835.029 96.2517L853.029 86.2517C853.665 85.8983 854.443 85.9183 855.06 86.304L869.791 95.5105L882.74 84H880C878.896 84 878 83.1046 878 82Z" fill="#E363EB"/>
<path fill-rule="evenodd" clip-rule="evenodd" d="M874 104C874 102.896 874.895 102 876 102H886C887.105 102 888 102.896 888 104V134C888 135.105 887.105 136 886 136H876C874.895 136 874 135.105 874 134V104ZM878 106V132H884V106H878ZM854 112C854 110.896 854.895 110 856 110H866C867.105 110 868 110.896 868 112V134C868 135.105 867.105 136 866 136H856C854.895 136 854 135.105 854 134V112ZM858 114V132H864V114H858ZM834 120C834 118.896 834.895 118 836 118H846C847.105 118 848 118.896 848 120V134C848 135.105 847.105 136 846 136H836C834.895 136 834 135.105 834 134V120ZM838 122V132H844V122H838Z" fill="#411EFE"/>
<rect x="754.5" y="353.875" width="207" height="119.25" rx="18" fill="#CFC8FE"/>
<rect x="769.5" y="426.625" width="19.5" height="15" rx="3.75" fill="#411EFE"/>
<rect x="795" y="411.625" width="19.5" height="30" rx="3.75" fill="#411EFE"/>
<rect x="820.5" y="396.625" width="19.5" height="45" rx="3.75" fill="#411EFE"/>
<rect x="846" y="389.125" width="19.5" height="52.5" rx="3.75" fill="#411EFE"/>
<rect x="871.5" y="383.892" width="19.5" height="57.7333" rx="3.75" fill="#411EFE"/>
<rect x="897" y="381.625" width="19.5" height="60" rx="3.75" fill="#411EFE"/>
<rect x="922.5" y="368.875" width="19.5" height="72.75" rx="3.75" fill="#411EFE"/>
<path d="M769.974 453.17H771.396L772.898 456.835H772.962L774.464 453.17H775.887V458.625H774.768V455.075H774.723L773.311 458.598H772.55L771.138 455.061H771.093V458.625H769.974V453.17Z" fill="#767676"/>
<path d="M796.266 454.121V453.17H800.746V454.121H799.076V458.625H797.936V454.121H796.266Z" fill="#767676"/>
<path d="M823.202 458.625L821.641 453.17H822.901L823.804 456.96H823.849L824.845 453.17H825.924L826.917 456.968H826.965L827.868 453.17H829.128L827.567 458.625H826.443L825.404 455.059H825.362L824.326 458.625H823.202Z" fill="#767676"/>
<path d="M849.266 454.121V453.17H853.746V454.121H852.076V458.625H850.936V454.121H849.266Z" fill="#767676"/>
<path d="M874.974 458.625V453.17H878.586V454.121H876.127V455.421H878.346V456.372H876.127V458.625H874.974Z" fill="#767676"/>
<path d="M902.433 454.739C902.412 454.524 902.32 454.357 902.159 454.238C901.997 454.119 901.778 454.06 901.501 454.06C901.313 454.06 901.154 454.087 901.024 454.14C900.895 454.191 900.795 454.263 900.726 454.356C900.658 454.448 900.625 454.553 900.625 454.67C900.621 454.768 900.642 454.853 900.686 454.926C900.732 454.998 900.795 455.061 900.875 455.115C900.955 455.166 901.047 455.211 901.152 455.251C901.257 455.288 901.369 455.32 901.488 455.346L901.978 455.464C902.216 455.517 902.434 455.588 902.633 455.677C902.832 455.765 903.004 455.875 903.15 456.004C903.295 456.134 903.408 456.287 903.488 456.462C903.569 456.638 903.611 456.84 903.613 457.067C903.611 457.401 903.526 457.69 903.357 457.935C903.19 458.178 902.949 458.368 902.633 458.502C902.319 458.636 901.939 458.702 901.496 458.702C901.055 458.702 900.672 458.635 900.345 458.5C900.02 458.365 899.766 458.165 899.583 457.901C899.402 457.634 899.307 457.305 899.298 456.912H900.414C900.427 457.095 900.479 457.248 900.571 457.371C900.665 457.491 900.791 457.583 900.947 457.645C901.105 457.705 901.283 457.735 901.482 457.735C901.678 457.735 901.847 457.707 901.991 457.65C902.137 457.593 902.249 457.514 902.329 457.413C902.409 457.312 902.449 457.196 902.449 457.064C902.449 456.942 902.413 456.839 902.34 456.755C902.269 456.672 902.164 456.601 902.026 456.542C901.889 456.484 901.721 456.43 901.522 456.382L900.928 456.233C900.468 456.121 900.105 455.947 899.839 455.709C899.573 455.471 899.44 455.15 899.442 454.747C899.44 454.417 899.528 454.128 899.706 453.882C899.885 453.635 900.131 453.442 900.444 453.304C900.756 453.165 901.111 453.096 901.509 453.096C901.914 453.096 902.267 453.165 902.569 453.304C902.873 453.442 903.109 453.635 903.277 453.882C903.446 454.128 903.533 454.414 903.538 454.739H902.433Z" fill="#767676"/>
<path d="M923.766 454.121V453.17H928.246V454.121H926.576V458.625H925.436V454.121H923.766ZM930.218 458.705C929.804 458.705 929.446 458.617 929.144 458.441C928.844 458.264 928.613 458.017 928.449 457.701C928.286 457.383 928.204 457.015 928.204 456.596C928.204 456.173 928.286 455.804 928.449 455.488C928.613 455.17 928.844 454.923 929.144 454.747C929.446 454.57 929.804 454.481 930.218 454.481C930.631 454.481 930.988 454.57 931.288 454.747C931.59 454.923 931.823 455.17 931.986 455.488C932.149 455.804 932.231 456.173 932.231 456.596C932.231 457.015 932.149 457.383 931.986 457.701C931.823 458.017 931.59 458.264 931.288 458.441C930.988 458.617 930.631 458.705 930.218 458.705ZM930.223 457.826C930.411 457.826 930.568 457.773 930.694 457.666C930.82 457.558 930.915 457.411 930.979 457.224C931.045 457.038 931.078 456.825 931.078 456.588C931.078 456.35 931.045 456.137 930.979 455.951C930.915 455.765 930.82 455.617 930.694 455.509C930.568 455.401 930.411 455.346 930.223 455.346C930.033 455.346 929.873 455.401 929.744 455.509C929.616 455.617 929.519 455.765 929.453 455.951C929.389 456.137 929.357 456.35 929.357 456.588C929.357 456.825 929.389 457.038 929.453 457.224C929.519 457.411 929.616 457.558 929.744 457.666C929.873 457.773 930.033 457.826 930.223 457.826ZM934.476 458.692C934.166 458.692 933.884 458.612 933.632 458.452C933.382 458.29 933.183 458.053 933.035 457.741C932.89 457.426 932.817 457.041 932.817 456.585C932.817 456.116 932.893 455.726 933.043 455.416C933.194 455.103 933.395 454.87 933.645 454.715C933.898 454.559 934.174 454.481 934.474 454.481C934.703 454.481 934.894 454.52 935.046 454.598C935.201 454.674 935.325 454.77 935.419 454.886C935.515 454.999 935.588 455.111 935.638 455.221H935.672V453.17H936.804V458.625H935.686V457.97H935.638C935.584 458.083 935.509 458.196 935.411 458.308C935.315 458.418 935.19 458.51 935.036 458.582C934.883 458.655 934.697 458.692 934.476 458.692ZM934.836 457.789C935.019 457.789 935.173 457.739 935.299 457.64C935.427 457.538 935.525 457.397 935.592 457.216C935.662 457.035 935.696 456.823 935.696 456.58C935.696 456.336 935.662 456.125 935.595 455.946C935.527 455.766 935.43 455.628 935.302 455.53C935.174 455.433 935.019 455.384 934.836 455.384C934.649 455.384 934.492 455.434 934.364 455.536C934.237 455.637 934.14 455.777 934.074 455.956C934.008 456.136 933.976 456.343 933.976 456.58C933.976 456.817 934.008 457.028 934.074 457.211C934.142 457.392 934.238 457.534 934.364 457.637C934.492 457.738 934.649 457.789 934.836 457.789ZM938.903 458.702C938.642 458.702 938.41 458.657 938.206 458.566C938.002 458.474 937.84 458.338 937.721 458.159C937.604 457.978 937.545 457.752 937.545 457.482C937.545 457.255 937.587 457.064 937.67 456.91C937.754 456.755 937.867 456.631 938.011 456.537C938.155 456.443 938.318 456.372 938.501 456.324C938.686 456.276 938.88 456.242 939.082 456.223C939.32 456.198 939.512 456.175 939.657 456.153C939.803 456.13 939.908 456.097 939.974 456.052C940.04 456.008 940.073 455.942 940.073 455.855V455.839C940.073 455.67 940.019 455.54 939.913 455.448C939.808 455.355 939.659 455.309 939.465 455.309C939.261 455.309 939.099 455.354 938.978 455.445C938.857 455.534 938.777 455.646 938.738 455.781L937.689 455.695C937.742 455.447 937.847 455.232 938.003 455.051C938.16 454.868 938.361 454.728 938.608 454.63C938.856 454.531 939.144 454.481 939.471 454.481C939.698 454.481 939.916 454.507 940.123 454.561C940.333 454.614 940.518 454.697 940.68 454.808C940.843 454.92 940.972 455.064 941.066 455.24C941.16 455.414 941.207 455.623 941.207 455.866V458.625H940.131V458.058H940.099C940.034 458.186 939.946 458.298 939.836 458.396C939.726 458.492 939.593 458.567 939.439 458.622C939.284 458.676 939.106 458.702 938.903 458.702ZM939.228 457.919C939.395 457.919 939.543 457.886 939.671 457.821C939.798 457.753 939.899 457.663 939.972 457.549C940.044 457.435 940.081 457.307 940.081 457.163V456.729C940.045 456.752 939.996 456.773 939.934 456.793C939.874 456.81 939.805 456.827 939.729 456.843C939.653 456.857 939.576 456.871 939.5 456.883C939.424 456.894 939.354 456.904 939.292 456.912C939.159 456.932 939.043 456.963 938.943 457.006C938.844 457.048 938.767 457.106 938.712 457.179C938.657 457.25 938.629 457.339 938.629 457.445C938.629 457.6 938.685 457.718 938.797 457.799C938.911 457.879 939.054 457.919 939.228 457.919ZM942.642 460.159C942.498 460.159 942.363 460.148 942.237 460.124C942.112 460.103 942.009 460.076 941.928 460.042L942.183 459.195C942.317 459.236 942.436 459.258 942.543 459.262C942.651 459.265 942.744 459.24 942.823 459.187C942.903 459.134 942.967 459.043 943.017 458.915L943.084 458.742L941.616 454.534H942.809L943.656 457.538H943.699L944.554 454.534H945.755L944.165 459.067C944.089 459.287 943.985 459.479 943.853 459.642C943.724 459.808 943.559 459.934 943.361 460.023C943.162 460.114 942.922 460.159 942.642 460.159Z" fill="#767676"/>
<defs>
<clipPath id="clip0_59_213">
<rect width="1000.33" height="392.668" fill="white" transform="translate(0.672852 95.1106)"/>
</clipPath>
<clipPath id="clip1_59_213">
<rect width="746.836" height="881.977" fill="white" transform="matrix(-1 0 0 1 862 -5.4277)"/>
</clipPath>
</defs>
</svg>
