<svg width="28" height="22" viewBox="0 0 28 22" fill="none" xmlns="http://www.w3.org/2000/svg">
<path d="M18 10.9998C18 13.209 16.2092 14.9998 14 14.9998C11.7909 14.9998 10 13.209 10 10.9998C10 8.7907 11.7909 6.99984 14 6.99984C16.2092 6.99984 18 8.7907 18 10.9998Z" stroke="url(#paint0_linear_146_896)" stroke-width="2" stroke-linecap="round" stroke-linejoin="round"/>
<path d="M1.27771 10.9998C2.97674 5.59034 8.03045 1.6665 14.0006 1.6665C19.9708 1.6665 25.0246 5.59039 26.7236 10.9999C25.0245 16.4093 19.9708 20.3332 14.0007 20.3332C8.03045 20.3332 2.97671 16.4093 1.27771 10.9998Z" stroke="url(#paint1_linear_146_896)" stroke-width="2" stroke-linecap="round" stroke-linejoin="round"/>
<defs>
<linearGradient id="paint0_linear_146_896" x1="1.27771" y1="10.9998" x2="26.7236" y2="10.9998" gradientUnits="userSpaceOnUse">
<stop stop-color="#8270FF"/>
<stop offset="0.5" stop-color="#411EFE"/>
<stop offset="1" stop-color="#E363EB"/>
</linearGradient>
<linearGradient id="paint1_linear_146_896" x1="1.27771" y1="10.9998" x2="26.7236" y2="10.9998" gradientUnits="userSpaceOnUse">
<stop stop-color="#8270FF"/>
<stop offset="0.5" stop-color="#411EFE"/>
<stop offset="1" stop-color="#E363EB"/>
</linearGradient>
</defs>
</svg>
