<svg width="26" height="26" viewBox="0 0 26 26" fill="none" xmlns="http://www.w3.org/2000/svg">
<path d="M9.88463 19.6667H16.1152M12.9999 1V2.33333M21.4852 4.51472L20.5424 5.45753M25 12.9999H23.6667M2.33333 12.9999H1M5.45746 5.45753L4.51465 4.51472M8.28588 17.7141C5.68239 15.1106 5.68239 10.8895 8.28588 8.28599C10.8894 5.68249 15.1105 5.68249 17.714 8.28599C20.3175 10.8895 20.3175 15.1106 17.714 17.7141L16.9845 18.4435C16.1407 19.2874 15.6666 20.4319 15.6666 21.6253V22.3333C15.6666 23.8061 14.4727 25 12.9999 25C11.5272 25 10.3333 23.8061 10.3333 22.3333V21.6253C10.3333 20.4319 9.85919 19.2874 9.01535 18.4435L8.28588 17.7141Z" stroke="#E363EB" stroke-width="2" stroke-linecap="round" stroke-linejoin="round"/>
</svg>
