<svg width="27" height="27" viewBox="0 0 27 27" fill="none" xmlns="http://www.w3.org/2000/svg">
<path d="M13.6666 4.33341C13.6666 2.86066 14.8605 1.66675 16.3333 1.66675C17.8061 1.66675 19 2.86066 19 4.33341V5.66675C19 6.40313 19.5969 7.00008 20.3333 7.00008H24.3333C25.0697 7.00008 25.6666 7.59704 25.6666 8.33341V12.3334C25.6666 13.0698 25.0697 13.6667 24.3333 13.6667H23C21.5272 13.6667 20.3333 14.8607 20.3333 16.3334C20.3333 17.8062 21.5272 19.0001 23 19.0001H24.3333C25.0697 19.0001 25.6666 19.597 25.6666 20.3334V24.3334C25.6666 25.0698 25.0697 25.6667 24.3333 25.6667H20.3333C19.5969 25.6667 19 25.0698 19 24.3334V23.0001C19 21.5273 17.8061 20.3334 16.3333 20.3334C14.8605 20.3334 13.6666 21.5273 13.6666 23.0001V24.3334C13.6666 25.0698 13.0697 25.6667 12.3333 25.6667H8.33329C7.59691 25.6667 6.99996 25.0698 6.99996 24.3334V20.3334C6.99996 19.597 6.40301 19.0001 5.66663 19.0001H4.33329C2.86053 19.0001 1.66663 17.8062 1.66663 16.3334C1.66663 14.8607 2.86053 13.6667 4.33329 13.6667H5.66663C6.40301 13.6667 6.99996 13.0698 6.99996 12.3334V8.33342C6.99996 7.59704 7.59691 7.00008 8.33329 7.00008H12.3333C13.0697 7.00008 13.6666 6.40313 13.6666 5.66675V4.33341Z" stroke="url(#paint0_linear_146_951)" stroke-width="2" stroke-linecap="round" stroke-linejoin="round"/>
<defs>
<linearGradient id="paint0_linear_146_951" x1="1.66663" y1="13.6667" x2="25.6666" y2="13.6667" gradientUnits="userSpaceOnUse">
<stop stop-color="#8270FF"/>
<stop offset="0.5" stop-color="#411EFE"/>
<stop offset="1" stop-color="#E363EB"/>
</linearGradient>
</defs>
</svg>
