<svg width="30" height="24" viewBox="0 0 30 24" fill="none" xmlns="http://www.w3.org/2000/svg">
<path d="M21.6666 22.6666H28.3333V19.9999C28.3333 17.7908 26.5424 15.9999 24.3333 15.9999C23.0592 15.9999 21.9241 16.5957 21.1916 17.5238M21.6666 22.6666H8.33329M21.6666 22.6666V19.9999C21.6666 19.1249 21.4981 18.2893 21.1916 17.5238M8.33329 22.6666H1.66663V19.9999C1.66663 17.7908 3.45749 15.9999 5.66663 15.9999C6.94077 15.9999 8.07577 16.5957 8.80829 17.5238M8.33329 22.6666V19.9999C8.33329 19.1249 8.50186 18.2893 8.80829 17.5238M8.80829 17.5238C9.7913 15.068 12.193 13.3333 15 13.3333C17.8069 13.3333 20.2086 15.068 21.1916 17.5238M19 5.33325C19 7.54239 17.2091 9.33325 15 9.33325C12.7908 9.33325 11 7.54239 11 5.33325C11 3.12411 12.7908 1.33325 15 1.33325C17.2091 1.33325 19 3.12411 19 5.33325ZM27 9.33325C27 10.806 25.8061 11.9999 24.3333 11.9999C22.8605 11.9999 21.6666 10.806 21.6666 9.33325C21.6666 7.86049 22.8605 6.66658 24.3333 6.66658C25.8061 6.66658 27 7.86049 27 9.33325ZM8.33329 9.33325C8.33329 10.806 7.13939 11.9999 5.66663 11.9999C4.19387 11.9999 2.99996 10.806 2.99996 9.33325C2.99996 7.86049 4.19387 6.66658 5.66663 6.66658C7.13939 6.66658 8.33329 7.86049 8.33329 9.33325Z" stroke="#8270FF" stroke-width="2" stroke-linecap="round" stroke-linejoin="round"/>
</svg>
